HIERARCHY
ROOT Hips
{
  OFFSET 5.84602e-005 68.8428 3.50346
  CHANNELS 6 Xposition Yposition Zposition Zrotation Xrotation Yrotation
  JOINT Spine
  {
    OFFSET 0 8.597 -4.6522
    CHANNELS 3 Zrotation Xrotation Yrotation
    JOINT Spine1
    {
      OFFSET 0 7.8454 0.4098
      CHANNELS 3 Zrotation Xrotation Yrotation
      JOINT Spine2
      {
        OFFSET 0 9.7078 -2.1609
        CHANNELS 3 Zrotation Xrotation Yrotation
        JOINT Neck
        {
          OFFSET 0 21.8761 -0.4549
          CHANNELS 3 Zrotation Xrotation Yrotation
          JOINT Head
          {
            OFFSET 0 12.3537 3.3602
            CHANNELS 3 Zrotation Xrotation Yrotation
            End Site
            {
              OFFSET 0.0001 18.9506 0.5657
            }
          }
        }
        JOINT LeftShoulder
        {
          OFFSET 2.2086 21.1115 7.2329
          CHANNELS 3 Zrotation Xrotation Yrotation
          JOINT LeftArm
          {
            OFFSET 13.1193 3.0282 -4.8998
            CHANNELS 3 Zrotation Xrotation Yrotation
            JOINT LeftForeArm
            {
              OFFSET 27.4081 -0.0973053 -0.2375
              CHANNELS 3 Zrotation Xrotation Yrotation
              JOINT LeftHand
              {
                OFFSET 22.8641 0.0662994 -0.1369
                CHANNELS 3 Zrotation Xrotation Yrotation
                JOINT LeftHandIndex1
                {
                  OFFSET 8.8614 0.775009 2.4612
                  CHANNELS 3 Zrotation Xrotation Yrotation
                  JOINT LeftHandIndex2
                  {
                    OFFSET 3.3146 -0.808304 0.5841
                    CHANNELS 3 Zrotation Xrotation Yrotation
                    JOINT LeftHandIndex3
                    {
                      OFFSET 2.2628 -0.552002 0.3989
                      CHANNELS 3 Zrotation Xrotation Yrotation
                      End Site
                      {
                        OFFSET 1.6102 -0.4807 0.2612
                      }
                    }
                  }
                }
                JOINT LeftHandMiddle1
                {
                  OFFSET 8.9937 0.895004 0.2143
                  CHANNELS 3 Zrotation Xrotation Yrotation
                  JOINT LeftHandMiddle2
                  {
                    OFFSET 4.0984 0.0113983 -0.0242
                    CHANNELS 3 Zrotation Xrotation Yrotation
                    JOINT LeftHandMiddle3
                    {
                      OFFSET 2.2716 0.00689697 -0.0138001
                      CHANNELS 3 Zrotation Xrotation Yrotation
                      End Site
                      {
                        OFFSET 2.0404 -0.1441 0.0027
                      }
                    }
                  }
                }
                JOINT LeftHandRing1
                {
                  OFFSET 8.5234 0.597198 -2.0164
                  CHANNELS 3 Zrotation Xrotation Yrotation
                  JOINT LeftHandRing2
                  {
                    OFFSET 3.7188 -0.188293 -0.2328
                    CHANNELS 3 Zrotation Xrotation Yrotation
                    JOINT LeftHandRing3
                    {
                      OFFSET 2.1191 -0.106598 -0.1332
                      CHANNELS 3 Zrotation Xrotation Yrotation
                      End Site
                      {
                        OFFSET 1.8737 -0.2304 -0.0886
                      }
                    }
                  }
                }
                JOINT LeftHandPinky1
                {
                  OFFSET 7.9094 -0.601089 -3.4825
                  CHANNELS 3 Zrotation Xrotation Yrotation
                  JOINT LeftHandPinky2
                  {
                    OFFSET 2.2874 -0.477005 -0.6314
                    CHANNELS 3 Zrotation Xrotation Yrotation
                    JOINT LeftHandPinky3
                    {
                      OFFSET 1.6774 -0.349396 -0.4633
                      CHANNELS 3 Zrotation Xrotation Yrotation
                      End Site
                      {
                        OFFSET 1.4888 -0.4091 -0.3416
                      }
                    }
                  }
                }
                JOINT LeftHandThumb1
                {
                  OFFSET 1.833 -1.3875 1.3896
                  CHANNELS 3 Zrotation Xrotation Yrotation
                  JOINT LeftHandThumb2
                  {
                    OFFSET 3.4129 -1.121 2.5732
                    CHANNELS 3 Zrotation Xrotation Yrotation
                    JOINT LeftHandThumb3
                    {
                      OFFSET 2.2474 -0.804199 1.6192
                      CHANNELS 3 Zrotation Xrotation Yrotation
                      End Site
                      {
                        OFFSET 1.6527 -0.5689 1.1317
                      }
                    }
                  }
                }
              }
            }
          }
        }
        JOINT RightShoulder
        {
          OFFSET -2.2086 21.1115 7.2329
          CHANNELS 3 Zrotation Xrotation Yrotation
          JOINT RightArm
          {
            OFFSET -13.1216 3.0287 -4.9007
            CHANNELS 3 Zrotation Xrotation Yrotation
            JOINT RightForeArm
            {
              OFFSET -27.4081 -0.0973053 -0.2375
              CHANNELS 3 Zrotation Xrotation Yrotation
              JOINT RightHand
              {
                OFFSET -22.8641 0.0664063 -0.1369
                CHANNELS 3 Zrotation Xrotation Yrotation
                JOINT RightHandIndex1
                {
                  OFFSET -8.8614 0.774994 2.4612
                  CHANNELS 3 Zrotation Xrotation Yrotation
                  JOINT RightHandIndex2
                  {
                    OFFSET -3.3146 -0.808304 0.5841
                    CHANNELS 3 Zrotation Xrotation Yrotation
                    JOINT RightHandIndex3
                    {
                      OFFSET -2.2628 -0.552002 0.3989
                      CHANNELS 3 Zrotation Xrotation Yrotation
                      End Site
                      {
                        OFFSET -1.6102 -0.4807 0.2612
                      }
                    }
                  }
                }
                JOINT RightHandMiddle1
                {
                  OFFSET -8.9937 0.894989 0.2143
                  CHANNELS 3 Zrotation Xrotation Yrotation
                  JOINT RightHandMiddle2
                  {
                    OFFSET -4.0984 0.0113983 -0.0242
                    CHANNELS 3 Zrotation Xrotation Yrotation
                    JOINT RightHandMiddle3
                    {
                      OFFSET -2.2716 0.00691223 -0.0138001
                      CHANNELS 3 Zrotation Xrotation Yrotation
                      End Site
                      {
                        OFFSET -2.0404 -0.1441 0.0027
                      }
                    }
                  }
                }
                JOINT RightHandRing1
                {
                  OFFSET -8.5234 0.597198 -2.0164
                  CHANNELS 3 Zrotation Xrotation Yrotation
                  JOINT RightHandRing2
                  {
                    OFFSET -3.7188 -0.188309 -0.2328
                    CHANNELS 3 Zrotation Xrotation Yrotation
                    JOINT RightHandRing3
                    {
                      OFFSET -2.1191 -0.106598 -0.1332
                      CHANNELS 3 Zrotation Xrotation Yrotation
                      End Site
                      {
                        OFFSET -1.8737 -0.2304 -0.0886
                      }
                    }
                  }
                }
                JOINT RightHandPinky1
                {
                  OFFSET -7.9094 -0.601105 -3.4825
                  CHANNELS 3 Zrotation Xrotation Yrotation
                  JOINT RightHandPinky2
                  {
                    OFFSET -2.2874 -0.477005 -0.6314
                    CHANNELS 3 Zrotation Xrotation Yrotation
                    JOINT RightHandPinky3
                    {
                      OFFSET -1.6774 -0.349396 -0.4633
                      CHANNELS 3 Zrotation Xrotation Yrotation
                      End Site
                      {
                        OFFSET -1.4888 -0.4091 -0.3416
                      }
                    }
                  }
                }
                JOINT RightHandThumb1
                {
                  OFFSET -1.833 -1.38751 1.3896
                  CHANNELS 3 Zrotation Xrotation Yrotation
                  JOINT RightHandThumb2
                  {
                    OFFSET -3.41299 -1.12099 2.5732
                    CHANNELS 3 Zrotation Xrotation Yrotation
                    JOINT RightHandThumb3
                    {
                      OFFSET -2.24741 -0.804108 1.6192
                      CHANNELS 3 Zrotation Xrotation Yrotation
                      End Site
                      {
                        OFFSET -1.6527 -0.5689 1.1317
                      }
                    }
                  }
                }
              }
            }
          }
        }
      }
    }
  }
  JOINT RightUpLeg
  {
    OFFSET -9.1966 3.8861 -0.7581
    CHANNELS 3 Zrotation Xrotation Yrotation
    JOINT RightLeg
    {
      OFFSET -0.7359 -41.0265 0
      CHANNELS 3 Zrotation Xrotation Yrotation
      JOINT RightFoot
      {
        OFFSET 0 -40.2855 0
        CHANNELS 3 Zrotation Xrotation Yrotation
        JOINT RightToeBase
        {
          OFFSET 0 -5.6122 11.7359
          CHANNELS 3 Zrotation Xrotation Yrotation
          End Site
          {
            OFFSET 0 0 7.8731
          }
        }
      }
    }
  }
  JOINT LeftUpLeg
  {
    OFFSET 9.1965 3.8864 -0.7581
    CHANNELS 3 Zrotation Xrotation Yrotation
    JOINT LeftLeg
    {
      OFFSET 0.7359 -41.0268 0
      CHANNELS 3 Zrotation Xrotation Yrotation
      JOINT LeftFoot
      {
        OFFSET 0 -40.2855 0
        CHANNELS 3 Zrotation Xrotation Yrotation
        JOINT LeftToeBase
        {
          OFFSET 0 -5.6122 11.7359
          CHANNELS 3 Zrotation Xrotation Yrotation
          End Site
          {
            OFFSET 0 0 7.8731
          }
        }
      }
    }
  }
}
MOTION
Frames:	7
Frame Time:	0.0333333
5.84602e-005 68.8428 3.50346 0 0 -0 0 0 -0 0 0 -0 0 0 -0 0 0 -0 0 0 -0 0 0 -0 0 0 -0 0 0 -0 0 0 -0 0 0 -0 0 0 -0 0 0 -0 0 0 -0 -0.0146107 -8.87603e-005 -2.63497e-007 2.99804e-018 -2.42657e-020 -1.42182e-022 0 0 -0 -0.0187562 -0.001176 5.858e-005 5.06224e-018 3.88251e-019 1.21329e-020 0 0 -0 -0.012269 -0.00324817 0.000675346 -1.74678e-018 3.88251e-019 -0 0 0 -0 0 0 -0 0 0 -0 0 0 -0 0 0 -0 0 0 -0 0 0 -0 0 0 -0 0 0 -0 0 0 -0 0 0 -0 0.0149955 -9.10982e-005 2.64101e-007 -9.69331e-018 1.21329e-020 -4.7394e-023 0 0 -0 0.0189956 -0.00119102 -5.96516e-005 -5.41541e-019 0 2.42657e-020 0 0 -0 0.0122698 -0.00324857 -0.000673756 -2.00796e-019 0 -1.94126e-019 0 0 -0 0 0 -0 0 0 -0 3.39842 1.33031 -0.0637918 -5.65207e-008 0.834868 -0.000436188 -3.39935 -2.16518 -0.0642563 -8.89002e-024 -1.18485e-023 -1.48106e-024 -3.39844 1.35642 0.0640283 -3.18788e-007 0.782166 -0.000588827 3.39931 -2.13858 0.0634662 1.1399e-023 0 -0 
39.9548 8.61986 26.7086 179.997 58.9881 3.99086e-011 0.555653 7.03726 -0.546577 1.19318 14.0684 -1.17597 1.19318 14.0684 -1.17597 1.7829e-005 13.9933 -9.66418e-006 6.63061e-007 0.134627 -5.62318e-008 -44.2408 -3.79164 1.02859 0.456724 55.2262 1.59045 1.59621 36.2719 -3.92206 1.98933 11.1529 -5.04361 -4.77083e-015 -5.56597e-015 9.54166e-015 3.88293e-007 1.70544e-007 4.6536e-008 -2.64834e-031 -2.38542e-015 -6.36111e-015 -4.77083e-015 -5.56597e-015 9.54166e-015 -0.0146051 -8.91516e-005 2.06924e-006 -1.90833e-014 9.54166e-015 -6.36111e-015 -4.77083e-015 -5.56597e-015 9.54166e-015 -0.0187489 -0.00117583 5.56989e-005 1.59028e-015 -7.95139e-016 -6.36111e-015 -4.77083e-015 -5.56597e-015 9.54166e-015 -0.0122928 -0.00325461 0.000679655 -3.18055e-015 3.18055e-015 9.54166e-015 -4.77083e-015 -5.56597e-015 9.54166e-015 3.88293e-007 1.70544e-007 4.6536e-008 -2.64834e-031 -2.38542e-015 -6.36111e-015 47.7629 -3.53853 -13.8079 40.8056 -11.6362 65.8821 57.4695 86.3427 -7.29798 -10.8567 -27.4958 8.70217 -2.38542e-015 3.18055e-015 -1.59028e-015 9.70598e-007 1.17863e-006 -1.45511e-006 2.55734e-006 4.67167e-007 6.97299e-007 -2.38542e-015 3.18055e-015 -1.59028e-015 0.0150716 -9.09034e-005 3.88653e-006 4.77083e-015 -3.18055e-015 -0 -2.38542e-015 3.18055e-015 -1.59028e-015 0.0190472 -0.00119375 -6.28777e-005 -7.95139e-016 -3.18055e-015 3.18055e-015 -2.38542e-015 3.18055e-015 -1.59028e-015 0.0122899 -0.00325225 -0.000675002 2.55838e-006 4.66985e-007 6.9712e-007 -2.38542e-015 3.18055e-015 -1.59028e-015 9.70598e-007 1.17863e-006 -1.45511e-006 2.55734e-006 4.67167e-007 6.97299e-007 -42.0103 -49.2089 -73.3173 -120.695 41.6562 137.469 -17.5838 -3.34299 -33.2048 1.96699e-006 7.32238e-007 -1.45557e-006 55.1066 -50.4293 84.3678 128.841 43.981 -122.228 23.8104 -10.8045 11.0635 3.18055e-015 -1.11319e-014 6.36111e-015 
39.9553 8.61746 26.5525 179.997 58.9977 1.17351e-010 0.554443 7.14817 -0.549673 1.1927 14.2902 -1.18366 1.1927 14.2902 -1.18366 3.03259e-006 14.3823 -2.23732e-006 -1.4276e-007 0.460281 5.7874e-007 -44.7215 -3.76844 0.316809 0.297463 55.2173 2.89644 1.93427 36.2491 -4.55889 2.25274 10.6774 -5.04564 -3.88294e-007 -1.70595e-007 -4.62734e-008 -3.88294e-007 -1.70595e-007 -4.62734e-008 1.59028e-015 -3.97569e-015 6.36111e-015 -3.88294e-007 -1.70595e-007 -4.62734e-008 -0.0146133 -8.83994e-005 -3.46681e-006 3.18055e-015 3.18055e-015 -0 -3.88294e-007 -1.70595e-007 -4.62734e-008 -0.0187668 -0.00117777 6.97776e-005 -1.43125e-014 -1.74931e-014 -3.18055e-015 -3.88294e-007 -1.70595e-007 -4.62734e-008 -0.0122609 -0.00324568 0.000674355 1.59028e-015 -7.95139e-016 9.54166e-015 -3.88294e-007 -1.70595e-007 -4.62734e-008 -3.88294e-007 -1.70595e-007 -4.62734e-008 1.59028e-015 -3.97569e-015 6.36111e-015 47.5939 -3.92929 -13.7804 40.9375 -11.6109 66.4844 60.0275 87.0526 -9.04787 -11.3266 -27.4545 8.78274 2.21866e-006 1.95847e-006 1.59219e-006 3.63152e-007 7.88754e-007 -1.43421e-006 -3.18055e-015 -3.18055e-015 7.95139e-016 2.21866e-006 1.95847e-006 1.59219e-006 0.0149958 -9.20794e-005 -3.96159e-007 -3.97569e-015 0 -1.59028e-015 2.21866e-006 1.95847e-006 1.59219e-006 0.0189854 -0.00118934 -5.96142e-005 3.97569e-015 0 -0 2.21866e-006 1.95847e-006 1.59219e-006 0.0122611 -0.00324446 -0.000674607 3.18055e-015 6.36111e-015 -1.59028e-015 2.21866e-006 1.95847e-006 1.59219e-006 3.63152e-007 7.88754e-007 -1.43421e-006 -3.18055e-015 -3.18055e-015 7.95139e-016 -42.3698 -49.3966 -73.6261 -120.698 41.6552 137.472 -17.5865 -3.34804 -33.2067 -1.96283e-006 -7.34517e-007 1.45978e-006 55.5942 -50.5857 84.7747 129.132 43.5766 -122.654 23.8253 -11.048 10.9678 6.39189e-007 -2.66815e-007 -4.95054e-007 
39.9558 8.61567 26.3975 179.997 58.9977 -1.13208e-010 0.553229 7.25917 -0.552762 1.19223 14.5122 -1.19135 1.19223 14.5122 -1.19135 4.28527e-006 14.7712 -4.00015e-006 -7.28227e-007 0.785983 5.21056e-007 -45.2023 -3.73926 -0.395336 0.138342 55.2064 4.20431 2.27205 36.2236 -5.19559 2.51583 10.2017 -5.04546 1.59028e-015 7.95139e-016 -1.90833e-014 -3.24468e-007 4.72762e-007 -2.41634e-006 -8.13967e-007 -3.27752e-007 -8.57866e-007 1.59028e-015 7.95139e-016 -1.90833e-014 -0.0146062 -8.84075e-005 3.35456e-006 -7.766e-007 -3.41281e-007 -9.19807e-008 1.59028e-015 7.95139e-016 -1.90833e-014 -0.0187505 -0.00117737 6.21941e-005 -7.76602e-007 -3.41278e-007 -9.19856e-008 1.59028e-015 7.95139e-016 -1.90833e-014 -0.0122629 -0.00324493 0.00067923 -8.12354e-007 -3.27222e-007 -8.57969e-007 1.59028e-015 7.95139e-016 -1.90833e-014 -3.24468e-007 4.72762e-007 -2.41634e-006 -8.13967e-007 -3.27752e-007 -8.57866e-007 47.425 -4.32023 -13.7541 41.0692 -11.5843 67.087 63.8777 87.7926 -12.0969 -11.7966 -27.4139 8.86372 -3.17348e-007 1.43275e-006 7.84507e-007 -3.17348e-007 1.43275e-006 7.84507e-007 -5.56597e-015 9.54166e-015 7.95139e-016 -3.17348e-007 1.43275e-006 7.84507e-007 0.0149893 -9.11089e-005 -1.86752e-006 -5.1684e-015 -6.36111e-015 2.38542e-015 -3.17348e-007 1.43275e-006 7.84507e-007 0.0190157 -0.00118794 -5.94864e-005 -6.36111e-015 1.27222e-014 -1.59028e-015 -3.17348e-007 1.43275e-006 7.84507e-007 0.0122355 -0.00323892 -0.000670811 -7.55382e-015 3.18055e-015 2.38542e-015 -3.17348e-007 1.43275e-006 7.84507e-007 -3.17348e-007 1.43275e-006 7.84507e-007 -5.56597e-015 9.54166e-015 7.95139e-016 -42.7324 -49.5832 -73.9379 -120.702 41.6541 137.475 -17.5893 -3.35323 -33.2088 -6.52841e-007 -2.45592e-007 4.88051e-007 56.0853 -50.7401 85.1849 129.418 43.1708 -123.076 23.8396 -11.2916 10.8719 9.95271e-007 1.40384e-006 3.11563e-006 
39.9563 8.61388 26.2425 179.997 58.9977 -1.13208e-010 0.552008 7.37015 -0.555846 1.19178 14.7342 -1.19904 1.19178 14.7341 -1.19904 2.02081e-005 15.1602 -6.98993e-006 -4.20556e-007 1.1117 4.72951e-007 -45.6831 -3.70408 -1.10771 -0.0204658 55.1934 5.51365 2.60941 36.1949 -5.83204 2.77862 9.72584 -5.04302 -8.26633e-007 -3.21345e-007 -8.56779e-007 -5.57439e-007 -2.66081e-007 3.14259e-007 -1.59028e-014 -2.38542e-014 -1.27222e-014 -8.26633e-007 -3.21345e-007 -8.56779e-007 -0.0146148 -8.88025e-005 -5.8032e-007 4.80713e-008 -2.01675e-008 7.65472e-007 -8.26633e-007 -3.21345e-007 -8.56779e-007 -0.0187487 -0.00117607 6.22434e-005 0 0 -0 -8.26633e-007 -3.21345e-007 -8.56779e-007 -0.0122757 -0.00324987 0.000682069 2.38542e-015 0 -0 -8.26633e-007 -3.21345e-007 -8.56779e-007 -5.57439e-007 -2.66081e-007 3.14259e-007 -1.59028e-014 -2.38542e-014 -1.27222e-014 47.2561 -4.71132 -13.7288 41.2006 -11.5563 67.6895 71.2199 88.5552 -18.6457 -12.2666 -27.3737 8.94505 -1.19271e-015 3.18055e-015 -2.38542e-015 7.95139e-016 9.54166e-015 -2.38542e-015 -1.59028e-015 9.54166e-015 -2.38542e-015 -1.19271e-015 3.18055e-015 -2.38542e-015 0.0150121 -9.27878e-005 4.61856e-008 -2.78299e-015 3.18055e-015 3.18055e-015 -1.19271e-015 3.18055e-015 -2.38542e-015 0.0190004 -0.00119318 -5.97345e-005 -3.57812e-015 -3.18055e-015 -1.59028e-015 -1.19271e-015 3.18055e-015 -2.38542e-015 0.0123111 -0.00325875 -0.000679032 6.36111e-015 -6.36111e-015 -4.77083e-015 -1.19271e-015 3.18055e-015 -2.38542e-015 7.95139e-016 9.54166e-015 -2.38542e-015 -1.59028e-015 9.54166e-015 -2.38542e-015 -43.0981 -49.7685 -74.2529 -120.706 41.6529 137.478 -17.592 -3.35838 -33.2107 1.30281e-006 4.92686e-007 -9.79009e-007 56.5799 -50.8926 85.5982 129.698 42.7637 -123.492 23.8533 -11.5352 10.7756 -6.38276e-007 2.64826e-007 4.979e-007 
39.9568 8.61208 26.0874 179.997 58.9977 -1.13208e-010 0.550785 7.48119 -0.558922 1.19133 14.9562 -1.20672 1.19133 14.9562 -1.20672 1.39573e-005 15.5492 -8.71328e-006 -1.97689e-007 1.43748 5.19901e-007 -46.1637 -3.66293 -1.8202 -0.178859 55.1782 6.82416 2.94627 36.1628 -6.46814 3.04086 9.2499 -5.03668 -3.88309e-007 -1.70754e-007 -4.53236e-008 -7.76617e-007 -3.41508e-007 -9.06471e-008 -3.88309e-007 -1.70754e-007 -4.53236e-008 -3.88309e-007 -1.70754e-007 -4.53236e-008 -0.0146139 -8.82618e-005 -9.26035e-006 -3.88311e-007 -1.70748e-007 -4.5345e-008 -3.88309e-007 -1.70754e-007 -4.53236e-008 -0.018763 -0.00117676 6.34317e-005 -3.88312e-007 -1.70747e-007 -4.53476e-008 -3.88309e-007 -1.70754e-007 -4.53236e-008 -0.0122866 -0.00325383 0.000676861 -3.88313e-007 -1.70747e-007 -4.53308e-008 -3.88309e-007 -1.70754e-007 -4.53236e-008 -7.76617e-007 -3.41508e-007 -9.06471e-008 -3.88309e-007 -1.70754e-007 -4.53236e-008 47.0873 -5.10255 -13.7047 41.3317 -11.527 68.2922 93.8452 89.2892 -40.4859 -12.7366 -27.3342 9.02674 3.58778e-006 -4.35724e-008 -1.35486e-006 2.43354e-006 -1.64149e-007 2.27792e-006 3.15412e-006 -3.73539e-007 1.71421e-006 3.58778e-006 -4.35724e-008 -1.35486e-006 0.0150003 -9.08099e-005 2.82976e-006 5.23811e-006 -8.77478e-007 2.63402e-006 3.58778e-006 -4.35724e-008 -1.35486e-006 0.0189699 -0.00118847 -5.7618e-005 2.85826e-006 6.10764e-007 8.4879e-007 3.58778e-006 -4.35724e-008 -1.35486e-006 0.0122355 -0.00324006 -0.000669358 5.2379e-006 -8.77836e-007 2.63379e-006 3.58778e-006 -4.35724e-008 -1.35486e-006 2.43354e-006 -1.64149e-007 2.27792e-006 3.15412e-006 -3.73539e-007 1.71421e-006 -43.4669 -49.9526 -74.571 -120.709 41.6518 137.481 -17.5947 -3.3635 -33.2127 -1.69726e-006 2.14345e-006 2.37471e-006 57.0779 -51.043 86.0148 129.973 42.3553 -123.902 23.8664 -11.7787 10.6789 8.94167e-007 -2.16335e-006 -4.56136e-006 
39.9573 8.61028 25.9324 179.997 58.9977 -1.13208e-010 0.549555 7.59233 -0.561993 1.19089 15.1783 -1.2144 1.19089 15.1783 -1.2144 2.05367e-005 15.9384 -1.07046e-005 1.66675e-007 1.76327 -3.64902e-007 -46.6439 -3.6158 -2.53268 -0.336699 55.161 8.13546 3.28255 36.1275 -7.10384 3.30314 8.77385 -5.02985 -3.59861e-007 1.25045e-007 3.1065e-006 -4.63443e-007 -1.41412e-006 -3.21019e-006 -3.59861e-007 1.25045e-007 3.1065e-006 -3.59861e-007 1.25045e-007 3.1065e-006 -0.0146016 -8.93407e-005 -3.64749e-006 -3.60033e-007 1.24648e-007 3.10651e-006 -3.59861e-007 1.25045e-007 3.1065e-006 -0.0187548 -0.00117724 5.90576e-005 -3.60053e-007 1.24523e-007 3.10652e-006 -3.59861e-007 1.25045e-007 3.1065e-006 -0.0122671 -0.00324875 0.000672003 -3.59919e-007 1.24676e-007 3.10653e-006 -3.59861e-007 1.25045e-007 3.1065e-006 -4.63443e-007 -1.41412e-006 -3.21019e-006 -3.59861e-007 1.25045e-007 3.1065e-006 46.9185 -5.49391 -13.6818 41.4625 -11.4963 68.8949 179.611 89.4335 -125.476 -13.2065 -27.2953 9.10879 -3.18055e-015 -6.36111e-015 -2.78299e-015 -4.45826e-007 -7.69278e-007 1.42667e-006 1.98785e-015 0 3.97569e-015 -3.18055e-015 -6.36111e-015 -2.78299e-015 0.0149998 -9.31118e-005 3.63755e-007 3.57812e-015 0 -5.1684e-015 -3.18055e-015 -6.36111e-015 -2.78299e-015 0.0189523 -0.00118396 -6.13668e-005 3.18055e-015 -6.36111e-015 1.98785e-015 -3.18055e-015 -6.36111e-015 -2.78299e-015 0.0122201 -0.00323604 -0.000667426 -7.15625e-015 -3.18055e-015 -7.15625e-015 -3.18055e-015 -6.36111e-015 -2.78299e-015 -4.45826e-007 -7.69278e-007 1.42667e-006 1.98785e-015 0 3.97569e-015 -43.8386 -50.1354 -74.8921 -120.713 41.6506 137.485 -17.5974 -3.36868 -33.2148 5.23623e-006 1.03106e-006 4.20329e-006 57.5793 -51.1914 86.4345 130.243 41.9457 -124.308 23.8788 -12.022 10.5818 1.89924e-006 9.3672e-006 -1.16786e-006 
